<?xml version="1.0" encoding="utf-8"?>
<!-- Generator: Adobe Illustrator 16.0.0, SVG Export Plug-In . SVG Version: 6.00 Build 0)  -->
<!DOCTYPE svg PUBLIC "-//W3C//DTD SVG 1.1//EN" "http://www.w3.org/Graphics/SVG/1.1/DTD/svg11.dtd">
<svg version="1.1" id="Layer_1" xmlns="http://www.w3.org/2000/svg" xmlns:xlink="http://www.w3.org/1999/xlink" x="0px" y="0px"
	 width="38.271px" height="45.8px" viewBox="30.865 27.1 38.271 45.8" enable-background="new 30.865 27.1 38.271 45.8"
	 xml:space="preserve">
<path fill="#7ED2EC" d="M50,27.1c-10.566,0-19.135,8.565-19.135,19.137c0,8.107,5.07,15.032,12.192,17.816l7.05,8.847l7.139-8.961
	c6.969-2.856,11.89-9.701,11.89-17.702C69.135,35.665,60.571,27.1,50,27.1z M50,52.693c-3.736,0-6.766-3.025-6.766-6.763
	c0-3.736,3.03-6.765,6.766-6.765c3.737,0,6.768,3.028,6.768,6.765C56.768,49.668,53.736,52.693,50,52.693z"/>
</svg>
