<?xml version="1.0" encoding="utf-8"?>
<!-- Generator: Adobe Illustrator 16.0.0, SVG Export Plug-In . SVG Version: 6.00 Build 0)  -->
<!DOCTYPE svg PUBLIC "-//W3C//DTD SVG 1.1//EN" "http://www.w3.org/Graphics/SVG/1.1/DTD/svg11.dtd">
<svg version="1.1" id="Your_Icon" xmlns="http://www.w3.org/2000/svg" xmlns:xlink="http://www.w3.org/1999/xlink" x="0px" y="0px"
	 width="79.5px" height="77.598px" viewBox="10.5 11 79.5 77.598" enable-background="new 10.5 11 79.5 77.598"
	 xml:space="preserve">
<path fill="#7ED2EC" d="M71.225,12.935c0.107,0.775,0.215,1.549,0.34,2.46c5.684,0,11.373,0,17.33,0
	c-0.131,1.894-0.195,3.64-0.379,5.373c-0.664,6.291-2.084,12.375-4.951,18.07c-2.265,4.493-5.489,8.01-10.055,10.212
	c-3.664,1.767-7.355,3.48-11.011,5.269c-0.771,0.375-1.44,0.961-2.14,1.476c-1.907,1.408-3.817,2.812-5.693,4.26
	c-0.318,0.247-0.664,0.71-0.669,1.078c-0.046,3.806-0.044,7.613-0.017,11.42c0.022,3.38,1.709,5.666,4.752,7.017
	c0.151,0.066-4.147,0.726-8.461,0.726c-4.338,0-8.687-0.658-8.534-0.726c2.984-1.328,4.7-3.553,4.736-6.887
	c0.041-3.851,0.045-7.701-0.006-11.551c-0.005-0.385-0.434-0.857-0.787-1.125c-1.655-1.238-3.353-2.42-5.033-3.625
	c-1.093-0.781-2.105-1.722-3.291-2.322c-3.074-1.562-6.209-3.007-9.348-4.438c-5.449-2.486-9.266-6.547-11.702-11.966
	c-3.039-6.757-4.383-13.888-4.659-21.251c-0.009-0.261,0.041-0.523,0.078-0.963c5.741,0,11.463,0,17.173,0
	c0.132-0.955,0.239-1.729,0.346-2.504C43.238,12.935,57.232,12.935,71.225,12.935z M16.82,20.547
	c0.698,3.251,1.297,6.361,2.041,9.436c1.805,7.459,6.185,12.898,13.058,16.311c0.677,0.337,1.438,0.505,2.516,0.872
	c-3.943-8.72-5.649-17.487-5.411-26.618C24.931,20.547,21.059,20.547,16.82,20.547z M66.042,47.157
	c0.998-0.307,1.621-0.396,2.144-0.676c4.992-2.685,9.34-5.991,11.625-11.477c1.938-4.649,3.101-9.45,3.619-14.528
	c-4.021,0-7.933,0-12.003,0C71.705,29.675,69.966,38.435,66.042,47.157z"/>
<path fill="#7ED2EC" d="M36.588,85.753c0-1.635,0-3.269,0-4.94c9.119,0,18.172,0,27.366,0c0,1.676,0,3.308,0,4.94
	C54.833,85.753,45.711,85.753,36.588,85.753z"/>
<path fill="#7ED2EC" d="M30.176,88.598c0-0.816,0-1.635,0-2.472c13.457,0,26.817,0,40.385,0c0,0.837,0,1.655,0,2.472
	C57.1,88.598,43.638,88.598,30.176,88.598z"/>
</svg>
