<?xml version="1.0" encoding="utf-8"?>
<!-- Generator: Adobe Illustrator 16.0.0, SVG Export Plug-In . SVG Version: 6.00 Build 0)  -->
<!DOCTYPE svg PUBLIC "-//W3C//DTD SVG 1.1//EN" "http://www.w3.org/Graphics/SVG/1.1/DTD/svg11.dtd">
<svg version="1.1" id="Layer_1" xmlns="http://www.w3.org/2000/svg" xmlns:xlink="http://www.w3.org/1999/xlink" x="0px" y="0px"
	 width="100px" height="100px" viewBox="0 0 100 100" enable-background="new 0 0 100 100" xml:space="preserve">
<path fill="#7ED2EC" d="M91.808,0.5H8.192C3.953,0.5,0.5,3.953,0.5,8.192v83.616c0,4.239,3.453,7.692,7.692,7.692h42.516h19.648
	h21.452c4.238,0,7.691-3.453,7.691-7.692V8.192C99.5,3.953,96.047,0.5,91.808,0.5z M55.75,94.5V58H43.5v-9h12.25V35.951
	c0-5.156,1.473-9.357,4.297-12.15c2.715-2.683,6.706-4.101,11.467-4.101c3.346,0,6.236,0.165,8.486,0.325v7.922l-5.116,0.002
	c-9.53,0-9.634,7.08-9.634,9.406V49h13.81l-1.185,9H65.25v36.5H55.75z M94.5,91.808c0,1.482-1.211,2.692-2.692,2.692H70.25V63
	h12.022l2.474-19H70.25v-6.645c0-1.726,0.281-2.8,0.771-3.383c0.572-0.679,1.932-1.023,3.891-1.023L85,32.945V15.569l-2.223-0.288
	c-1.133-0.151-5.664-0.581-11.3-0.581c-6.104,0-11.263,1.917-14.933,5.545c-3.797,3.753-5.795,9.184-5.795,15.706V44H38.5v19h12.25
	v31.5H8.192C6.71,94.5,5.5,93.29,5.5,91.808V8.192C5.5,6.71,6.71,5.5,8.192,5.5h83.615c1.481,0,2.692,1.21,2.692,2.692V91.808z"/>
</svg>
