<?xml version="1.0" encoding="utf-8"?>
<!-- Generator: Adobe Illustrator 16.0.0, SVG Export Plug-In . SVG Version: 6.00 Build 0)  -->
<!DOCTYPE svg PUBLIC "-//W3C//DTD SVG 1.1//EN" "http://www.w3.org/Graphics/SVG/1.1/DTD/svg11.dtd">
<svg version="1.1" id="Glyphs_-_Outdoors" xmlns="http://www.w3.org/2000/svg" xmlns:xlink="http://www.w3.org/1999/xlink" x="0px"
	 y="0px" width="85px" height="70px" viewBox="7.5 15 85 70" enable-background="new 7.5 15 85 70" xml:space="preserve">
<path id="Map_1_" fill="#7ED2EC" d="M48.5,67.5c-4.75,0.25-8.5,1.75-8.5,3.75S44.5,75,50,75s10-1.75,10-3.75
	c0-1.75-3.75-3.5-8.5-3.75c2.75-5.75,11-22.25,14.75-31.25c0,0,1.25-3.25,1.25-5.5C67.5,22,59.75,15,50,15s-17.5,7-17.5,15.75
	c0,2.25,1.25,5.5,1.25,5.5C37.5,45.25,45.75,61.75,48.5,67.5z M50,27.5c2.75,0,5,2.25,5,5s-2.25,5-5,5s-5-2.25-5-5
	S47.25,27.5,50,27.5z M77.5,60h-15L60,65h15l7.5,15h-65L25,65h15l-2.5-5h-15l-15,25h85L77.5,60z"/>
</svg>
