<?xml version="1.0" encoding="utf-8"?>
<!-- Generator: Adobe Illustrator 16.0.0, SVG Export Plug-In . SVG Version: 6.00 Build 0)  -->
<!DOCTYPE svg PUBLIC "-//W3C//DTD SVG 1.1//EN" "http://www.w3.org/Graphics/SVG/1.1/DTD/svg11.dtd">
<svg version="1.1" id="Layer_1" xmlns="http://www.w3.org/2000/svg" xmlns:xlink="http://www.w3.org/1999/xlink" x="0px" y="0px"
	 width="100px" height="77.446px" viewBox="-13.049 3.309 100 77.446" enable-background="new -13.049 3.309 100 77.446"
	 xml:space="preserve">
<g>
	<path fill="#7ED2EC" d="M86.951,3.309v65.842c0,6.129-5.346,11.604-10.952,11.604H1.159c-9.257,0-14.208-4.824-14.208-16.559
		V16.088h13.82V3.309H86.951L86.951,3.309z M0.771,23.127h-6.782v41.07c0,5.997,1.432,8.866,3.257,8.866
		c2.219,0,3.524-2.869,3.524-8.866L0.771,23.127L0.771,23.127z M79.912,10.35H7.81v53.847c0,4.173-0.782,7.17-1.957,9.517h70.146
		c2.345,0,3.913-2.736,3.913-4.562V10.35z M35.581,35.122H19.023v-2.347h16.558V35.122z M35.581,42.813H19.023v-2.347h16.558V42.813
		z M35.581,50.246H19.023v-2.347h16.558V50.246z M35.581,57.418H19.023v-2.347h16.558V57.418z M35.581,64.849H19.023v-2.346h16.558
		V64.849z M21.499,20.651h43.418v4.563H21.499V20.651z M42.101,32.775h27.767v26.468H42.101V32.775z"/>
</g>
</svg>
