<?xml version="1.0" encoding="utf-8"?>
<!-- Generator: Adobe Illustrator 16.0.0, SVG Export Plug-In . SVG Version: 6.00 Build 0)  -->
<!DOCTYPE svg PUBLIC "-//W3C//DTD SVG 1.1//EN" "http://www.w3.org/Graphics/SVG/1.1/DTD/svg11.dtd">
<svg version="1.1" id="Layer_1" xmlns="http://www.w3.org/2000/svg" xmlns:xlink="http://www.w3.org/1999/xlink" x="0px" y="0px"
	 width="91.75px" height="92.25px" viewBox="3.5 6.5 91.75 92.25" enable-background="new 3.5 6.5 91.75 92.25"
	 xml:space="preserve">
<g id="Captions">
</g>
<g id="Your_Icon">
	<path fill="#7ED2EC" d="M49.422,8C24.928,8,5,27.928,5,52.422s19.928,44.422,44.422,44.422s44.422-19.928,44.422-44.422
		S73.916,8,49.422,8z M49.422,11.122c19.455,0,35.801,13.525,40.152,31.664H52.668c-0.827,0-1.654,0-2.483,0l0.067,2.342l0.068,2.34
		c0.014,0.492-0.318,0.904-0.812,0.919c-0.492,0.015-0.866-0.372-0.866-0.865c0-0.018,0-0.037,0-0.055l0.043-2.34l0.043-2.342
		c-0.85,0-1.702,0-2.553,0H9.269C13.622,24.647,29.967,11.122,49.422,11.122z M49.474,71.598c0.888,0.027,1.596,0.747,1.624,1.623
		l0.262,8.586c0.031,1.069-0.809,1.963-1.877,1.996c-1.07,0.032-1.964-0.81-1.996-1.88c-0.002-0.035-0.001-0.081,0-0.116
		l0.261-8.586C47.774,72.296,48.547,71.566,49.474,71.598z M47.861,64.723c0-0.027,0-0.058,0-0.086l0.334-8.584
		c0.02-0.637,0.588-1.138,1.225-1.117c0.613,0.019,1.118,0.516,1.137,1.117l0.271,8.584c0.023,0.781-0.66,1.437-1.44,1.457
		C48.607,66.119,47.861,65.504,47.861,64.723z M8.78,45.127h33.046c-2.33,1.372-5.378,3.267-8.617,5.5
		c-7.667,5.548-15.001,11.73-21.659,18.248c-2.2-5.046-3.428-10.607-3.428-16.453C8.122,49.932,8.355,47.497,8.78,45.127z
		 M47.125,93.656l0.099-3.266c0.038-1.216,1.051-2.17,2.266-2.133c1.167,0.036,2.095,0.98,2.131,2.133l0.099,3.266
		c-0.76,0.04-1.527,0.064-2.297,0.064C48.651,93.723,47.885,93.696,47.125,93.656z M87.295,68.875
		c-6.659-6.518-13.992-12.699-21.66-18.248c-3.238-2.233-6.285-4.128-8.615-5.5h33.045c0.424,2.37,0.658,4.804,0.658,7.294
		C90.723,58.268,89.494,63.829,87.295,68.875z"/>
</g>
</svg>
