<?xml version="1.0" encoding="utf-8"?>
<!-- Generator: Adobe Illustrator 16.0.0, SVG Export Plug-In . SVG Version: 6.00 Build 0)  -->
<!DOCTYPE svg PUBLIC "-//W3C//DTD SVG 1.1//EN" "http://www.w3.org/Graphics/SVG/1.1/DTD/svg11.dtd">
<svg version="1.1" id="Capa_1" xmlns="http://www.w3.org/2000/svg" xmlns:xlink="http://www.w3.org/1999/xlink" x="0px" y="0px"
	 width="37.75px" height="91.25px" viewBox="34.75 6.25 37.75 91.25" enable-background="new 34.75 6.25 37.75 91.25"
	 xml:space="preserve">
<g>
	<g id="Your_Icon">
	</g>
	<g id="Modo_de_aislamiento">
	</g>
	<circle fill="#7ED2EC" cx="53.759" cy="19.742" r="12.242"/>
	<circle display="none" fill="#7ED2EC" cx="20.238" cy="35.55" r="9.965"/>
	<path display="none" fill="#7ED2EC" d="M47.633,92.602c-6.214-3.746-23.203-15.153-31.437-32.301
		c-3.363-7.002-0.865-9.156,2.386-12.903c2.265,0.651,4.769,0.507,7.059-0.593c2.292-1.1,3.97-2.964,4.878-5.138
		c1.059-0.042,2.039-0.101,2.96-0.102c-0.136,1.048-0.204,2.19-0.204,3.444c0,10.253,2.387,21.276,7.093,32.763
		c2.396,5.847,5.04,10.92,7.271,14.795C47.637,92.577,47.634,92.591,47.633,92.602z"/>
	<path fill="#7ED2EC" d="M36.119,45.007c0-9.543,3.912-10.601,9.504-13.022c2.163,1.925,5.011,3.097,8.136,3.097
		s5.972-1.171,8.136-3.097c5.593,2.421,9.504,3.48,9.504,13.022c0,23.37-12.748,45.039-17.64,52.493
		C48.868,90.046,36.119,68.378,36.119,45.007z"/>
	<path display="none" fill="#7ED2EC" d="M91.321,60.301C83.088,77.449,66.1,88.855,59.884,92.602
		c-0.001-0.013-0.003-0.024-0.006-0.037c2.229-3.875,4.875-8.949,7.271-14.795c4.707-11.487,7.094-22.511,7.094-32.764
		c0-1.254-0.069-2.396-0.204-3.444c0.921,0,1.899,0.06,2.96,0.102c0.908,2.175,2.586,4.038,4.878,5.138
		c2.292,1.1,4.794,1.244,7.06,0.593C92.186,51.145,94.684,53.3,91.321,60.301z"/>
	<circle display="none" fill="#7ED2EC" cx="87.28" cy="35.55" r="9.965"/>
</g>
</svg>
